<svg width="24" height="17" viewBox="0 0 24 17" fill="none" xmlns="http://www.w3.org/2000/svg">
<g clip-path="url(#clip0_2_149)">
<path d="M16.0321 5.93242C16.0321 5.80216 16.1064 5.67724 16.2386 5.58514C16.3709 5.49304 16.5503 5.44129 16.7373 5.44129H19.5581C19.7451 5.44129 19.9245 5.49304 20.0567 5.58514C20.189 5.67724 20.2633 5.80216 20.2633 5.93242V6.91467C20.2633 7.04492 20.189 7.16984 20.0567 7.26195C19.9245 7.35405 19.7451 7.4058 19.5581 7.4058H16.7373C16.5503 7.4058 16.3709 7.35405 16.2386 7.26195C16.1064 7.16984 16.0321 7.04492 16.0321 6.91467V5.93242Z" fill="white"/>
<path d="M3.3385 2.49454C2.59037 2.49454 1.87289 2.70151 1.34389 3.06993C0.81489 3.43834 0.5177 3.93802 0.5177 4.45904L0.5177 12.3171C0.5177 12.8381 0.81489 13.3378 1.34389 13.7062C1.87289 14.0746 2.59037 14.2816 3.3385 14.2816H20.2633C21.0114 14.2816 21.7289 14.0746 22.2579 13.7062C22.7869 13.3378 23.0841 12.8381 23.0841 12.3171V4.45904C23.0841 3.93802 22.7869 3.43834 22.2579 3.06993C21.7289 2.70151 21.0114 2.49454 20.2633 2.49454H3.3385ZM21.6737 4.45904V9.3703H1.9281V4.45904C1.9281 4.19853 2.07669 3.94869 2.34119 3.76448C2.6057 3.58028 2.96444 3.47679 3.3385 3.47679H20.2633C20.6373 3.47679 20.9961 3.58028 21.2606 3.76448C21.5251 3.94869 21.6737 4.19853 21.6737 4.45904ZM20.2633 13.2993H3.3385C2.96444 13.2993 2.6057 13.1958 2.34119 13.0116C2.07669 12.8274 1.9281 12.5776 1.9281 12.3171V11.3348H21.6737V12.3171C21.6737 12.5776 21.5251 12.8274 21.2606 13.0116C20.9961 13.1958 20.6373 13.2993 20.2633 13.2993Z" fill="white"/>
</g>
<defs>
<clipPath id="clip0_2_149">
<rect width="22.5664" height="15.716" fill="white" transform="translate(0.5177 0.530029)"/>
</clipPath>
</defs>
</svg>
