<svg width="153" height="168" viewBox="0 0 153 168" fill="none" xmlns="http://www.w3.org/2000/svg">
<g filter="url(#filter0_d_2_585)">
<rect x="4" width="144.44" height="160" rx="20" fill="#1A1363"/>
<rect x="5.5" y="1.5" width="141.44" height="157" rx="18.5" stroke="white" stroke-width="3"/>
</g>
<path d="M41.4661 129.388H38.0601L37.5141 131H35.1871L38.4891 121.874H41.0631L44.3651 131H42.0121L41.4661 129.388ZM40.8941 127.672L39.7631 124.331L38.6451 127.672H40.8941ZM49.79 123.668C50.6394 123.668 51.3154 123.945 51.818 124.5C52.3294 125.046 52.585 125.8 52.585 126.762V131H50.375V127.061C50.375 126.576 50.2494 126.199 49.998 125.93C49.7467 125.661 49.4087 125.527 48.984 125.527C48.5594 125.527 48.2214 125.661 47.97 125.93C47.7187 126.199 47.593 126.576 47.593 127.061V131H45.37V123.746H47.593V124.708C47.8184 124.387 48.1217 124.136 48.503 123.954C48.8844 123.763 49.3134 123.668 49.79 123.668ZM58.5498 123.668C59.3991 123.668 60.0751 123.945 60.5778 124.5C61.0891 125.046 61.3448 125.8 61.3448 126.762V131H59.1348V127.061C59.1348 126.576 59.0091 126.199 58.7578 125.93C58.5065 125.661 58.1685 125.527 57.7438 125.527C57.3191 125.527 56.9811 125.661 56.7298 125.93C56.4785 126.199 56.3528 126.576 56.3528 127.061V131H54.1298V123.746H56.3528V124.708C56.5781 124.387 56.8815 124.136 57.2628 123.954C57.6441 123.763 58.0731 123.668 58.5498 123.668ZM70.0526 123.746V131H67.8296V130.012C67.6042 130.333 67.2966 130.593 66.9066 130.792C66.5252 130.983 66.1006 131.078 65.6326 131.078C65.0779 131.078 64.5882 130.957 64.1636 130.714C63.7389 130.463 63.4096 130.103 63.1756 129.635C62.9416 129.167 62.8246 128.617 62.8246 127.984V123.746H65.0346V127.685C65.0346 128.17 65.1602 128.547 65.4116 128.816C65.6629 129.085 66.0009 129.219 66.4256 129.219C66.8589 129.219 67.2012 129.085 67.4526 128.816C67.7039 128.547 67.8296 128.17 67.8296 127.685V123.746H70.0526ZM71.2073 127.36C71.2073 126.615 71.346 125.96 71.6233 125.397C71.9093 124.834 72.295 124.4 72.7803 124.097C73.2657 123.794 73.8073 123.642 74.4053 123.642C74.9167 123.642 75.363 123.746 75.7443 123.954C76.1343 124.162 76.4333 124.435 76.6413 124.773V123.746H78.8643V131H76.6413V129.973C76.4247 130.311 76.1213 130.584 75.7313 130.792C75.35 131 74.9037 131.104 74.3923 131.104C73.803 131.104 73.2657 130.952 72.7803 130.649C72.295 130.337 71.9093 129.899 71.6233 129.336C71.346 128.764 71.2073 128.105 71.2073 127.36ZM76.6413 127.373C76.6413 126.818 76.4853 126.381 76.1733 126.06C75.87 125.739 75.4973 125.579 75.0553 125.579C74.6133 125.579 74.2363 125.739 73.9243 126.06C73.621 126.372 73.4693 126.805 73.4693 127.36C73.4693 127.915 73.621 128.357 73.9243 128.686C74.2363 129.007 74.6133 129.167 75.0553 129.167C75.4973 129.167 75.87 129.007 76.1733 128.686C76.4853 128.365 76.6413 127.928 76.6413 127.373ZM82.6956 121.38V131H80.4726V121.38H82.6956ZM91.7154 131L89.8174 127.555H89.2844V131H87.0614V121.874H90.7924C91.5118 121.874 92.1228 122 92.6254 122.251C93.1368 122.502 93.5181 122.849 93.7694 123.291C94.0208 123.724 94.1464 124.21 94.1464 124.747C94.1464 125.354 93.9731 125.895 93.6264 126.372C93.2884 126.849 92.7858 127.187 92.1184 127.386L94.2244 131H91.7154ZM89.2844 125.982H90.6624C91.0698 125.982 91.3731 125.882 91.5724 125.683C91.7804 125.484 91.8844 125.202 91.8844 124.838C91.8844 124.491 91.7804 124.218 91.5724 124.019C91.3731 123.82 91.0698 123.72 90.6624 123.72H89.2844V125.982ZM95.0999 127.36C95.0999 126.615 95.2386 125.96 95.5159 125.397C95.8019 124.834 96.1876 124.4 96.6729 124.097C97.1582 123.794 97.6999 123.642 98.2979 123.642C98.8092 123.642 99.2556 123.746 99.6369 123.954C100.027 124.162 100.326 124.435 100.534 124.773V123.746H102.757V131H100.534V129.973C100.317 130.311 100.014 130.584 99.6239 130.792C99.2426 131 98.7962 131.104 98.2849 131.104C97.6956 131.104 97.1582 130.952 96.6729 130.649C96.1876 130.337 95.8019 129.899 95.5159 129.336C95.2386 128.764 95.0999 128.105 95.0999 127.36ZM100.534 127.373C100.534 126.818 100.378 126.381 100.066 126.06C99.7626 125.739 99.3899 125.579 98.9479 125.579C98.5059 125.579 98.1289 125.739 97.8169 126.06C97.5136 126.372 97.3619 126.805 97.3619 127.36C97.3619 127.915 97.5136 128.357 97.8169 128.686C98.1289 129.007 98.5059 129.167 98.9479 129.167C99.3899 129.167 99.7626 129.007 100.066 128.686C100.378 128.365 100.534 127.928 100.534 127.373ZM108.408 129.115V131H107.277C106.471 131 105.843 130.805 105.392 130.415C104.941 130.016 104.716 129.371 104.716 128.478V125.592H103.832V123.746H104.716V121.978H106.939V123.746H108.395V125.592H106.939V128.504C106.939 128.721 106.991 128.877 107.095 128.972C107.199 129.067 107.372 129.115 107.615 129.115H108.408ZM116.484 127.256C116.484 127.464 116.471 127.681 116.445 127.906H111.414C111.449 128.357 111.592 128.703 111.843 128.946C112.103 129.18 112.42 129.297 112.792 129.297C113.347 129.297 113.733 129.063 113.949 128.595H116.315C116.194 129.072 115.973 129.501 115.652 129.882C115.34 130.263 114.946 130.562 114.469 130.779C113.993 130.996 113.46 131.104 112.87 131.104C112.16 131.104 111.527 130.952 110.972 130.649C110.418 130.346 109.984 129.912 109.672 129.349C109.36 128.786 109.204 128.127 109.204 127.373C109.204 126.619 109.356 125.96 109.659 125.397C109.971 124.834 110.405 124.4 110.959 124.097C111.514 123.794 112.151 123.642 112.87 123.642C113.572 123.642 114.196 123.789 114.742 124.084C115.288 124.379 115.713 124.799 116.016 125.345C116.328 125.891 116.484 126.528 116.484 127.256ZM114.209 126.671C114.209 126.29 114.079 125.986 113.819 125.761C113.559 125.536 113.234 125.423 112.844 125.423C112.472 125.423 112.155 125.531 111.895 125.748C111.644 125.965 111.488 126.272 111.427 126.671H114.209Z" fill="white"/>
<path d="M35.296 96.48V102H39.616V96.48L49.12 85.2H43.912L37.456 92.856L31 85.2H25.792L35.296 96.48ZM55.4299 98.904C52.6939 98.904 50.5339 98.16 50.0779 95.904H65.3419C65.3419 89.472 61.0459 87.624 55.6699 87.624C49.9339 87.624 45.8779 89.736 45.8779 94.944C45.8779 100.128 50.0539 102.24 55.4299 102.24C60.6619 102.24 64.1659 100.536 65.1019 96.936H61.0219C59.9899 98.376 58.2619 98.904 55.4299 98.904ZM55.6459 90.744C58.2379 90.744 60.2539 91.296 60.9499 93.288H50.2219C50.8699 91.296 52.8379 90.744 55.6459 90.744ZM76.132 87.624C73.18 87.624 70.348 88.152 67.468 89.088L68.932 92.088C71.836 91.224 74.092 91.056 75.94 91.056C77.86 91.056 81.316 91.272 81.316 93.96C79.468 93.336 77.236 92.952 74.812 92.952C70.324 92.952 66.292 94.104 66.292 97.776C66.292 100.968 68.764 102.24 72.724 102.24C76.06 102.24 78.82 101.472 81.316 100.248V102H85.444V94.872C85.396 89.52 82.036 87.624 76.132 87.624ZM81.316 97.608C79.204 98.52 76.132 99.216 73.9 99.216C71.764 99.216 70.396 99.096 70.396 97.608C70.396 96.168 72.244 95.64 75.316 95.64C77.932 95.64 79.876 96.048 81.316 96.504V97.608ZM98.6262 87.624C95.9862 87.624 93.4902 88.368 91.3782 90.264V87.864H87.2742V102H91.3782V93.528C93.8742 91.584 96.5142 91.056 98.8182 91.056C100.018 91.056 101.098 91.2 102.442 91.536V88.104C101.482 87.864 100.306 87.624 98.6262 87.624Z" fill="white"/>
<path d="M48.224 64.752V38.4H39.584C39.584 44.832 33.008 44.832 28.064 44.832V52.128C31.568 52.128 36.032 52.128 39.68 48.912L39.632 64.752H28.064V72H59.744V64.752H48.224Z" fill="white"/>
<path d="M97.2637 42.5601L94.4237 26.3626L102.234 33.7251L107.204 24.8901L112.174 33.7251L119.984 26.3626L117.144 42.5601H97.2637ZM117.144 46.9776C117.144 47.8611 116.576 48.4501 115.724 48.4501H98.6837C97.8317 48.4501 97.2637 47.8611 97.2637 46.9776V45.5051H117.144V46.9776Z" fill="white"/>
<defs>
<filter id="filter0_d_2_585" x="0" y="0" width="152.44" height="168" filterUnits="userSpaceOnUse" color-interpolation-filters="sRGB">
<feFlood flood-opacity="0" result="BackgroundImageFix"/>
<feColorMatrix in="SourceAlpha" type="matrix" values="0 0 0 0 0 0 0 0 0 0 0 0 0 0 0 0 0 0 127 0" result="hardAlpha"/>
<feOffset dy="4"/>
<feGaussianBlur stdDeviation="2"/>
<feComposite in2="hardAlpha" operator="out"/>
<feColorMatrix type="matrix" values="0 0 0 0 0 0 0 0 0 0 0 0 0 0 0 0 0 0 0.25 0"/>
<feBlend mode="normal" in2="BackgroundImageFix" result="effect1_dropShadow_2_585"/>
<feBlend mode="normal" in="SourceGraphic" in2="effect1_dropShadow_2_585" result="shape"/>
</filter>
</defs>
</svg>
