<svg width="153" height="171" viewBox="0 0 153 171" fill="none" xmlns="http://www.w3.org/2000/svg">
<g filter="url(#filter0_d_2_570)">
<rect x="4" width="144.44" height="163" rx="20" fill="#77749B"/>
<rect x="5.5" y="1.5" width="141.44" height="160" rx="18.5" stroke="white" stroke-width="3"/>
</g>
<path d="M42.9343 123.874V133H40.7113V127.527L38.6703 133H36.8763L34.8223 127.514V133H32.5993V123.874H35.2253L37.7863 130.192L40.3213 123.874H42.9343ZM47.8349 133.104C47.1243 133.104 46.4829 132.952 45.9109 132.649C45.3476 132.346 44.9013 131.912 44.5719 131.349C44.2513 130.786 44.0909 130.127 44.0909 129.373C44.0909 128.628 44.2556 127.973 44.5849 127.41C44.9143 126.838 45.3649 126.4 45.9369 126.097C46.5089 125.794 47.1503 125.642 47.8609 125.642C48.5716 125.642 49.2129 125.794 49.7849 126.097C50.3569 126.4 50.8076 126.838 51.1369 127.41C51.4663 127.973 51.6309 128.628 51.6309 129.373C51.6309 130.118 51.4619 130.777 51.1239 131.349C50.7946 131.912 50.3396 132.346 49.7589 132.649C49.1869 132.952 48.5456 133.104 47.8349 133.104ZM47.8349 131.18C48.2596 131.18 48.6193 131.024 48.9139 130.712C49.2173 130.4 49.3689 129.954 49.3689 129.373C49.3689 128.792 49.2216 128.346 48.9269 128.034C48.6409 127.722 48.2856 127.566 47.8609 127.566C47.4276 127.566 47.0679 127.722 46.7819 128.034C46.4959 128.337 46.3529 128.784 46.3529 129.373C46.3529 129.954 46.4916 130.4 46.7689 130.712C47.0549 131.024 47.4103 131.18 47.8349 131.18ZM57.2303 125.668C58.0796 125.668 58.7556 125.945 59.2583 126.5C59.7696 127.046 60.0253 127.8 60.0253 128.762V133H57.8153V129.061C57.8153 128.576 57.6896 128.199 57.4383 127.93C57.1869 127.661 56.8489 127.527 56.4243 127.527C55.9996 127.527 55.6616 127.661 55.4103 127.93C55.1589 128.199 55.0333 128.576 55.0333 129.061V133H52.8103V125.746H55.0333V126.708C55.2586 126.387 55.5619 126.136 55.9433 125.954C56.3246 125.763 56.7536 125.668 57.2303 125.668ZM65.613 131.115V133H64.482C63.676 133 63.0477 132.805 62.597 132.415C62.1464 132.016 61.921 131.371 61.921 130.478V127.592H61.037V125.746H61.921V123.978H64.144V125.746H65.6V127.592H64.144V130.504C64.144 130.721 64.196 130.877 64.3 130.972C64.404 131.067 64.5774 131.115 64.82 131.115H65.613ZM71.3103 125.668C72.1423 125.668 72.8096 125.945 73.3123 126.5C73.8149 127.046 74.0663 127.8 74.0663 128.762V133H71.8563V129.061C71.8563 128.576 71.7306 128.199 71.4793 127.93C71.2279 127.661 70.8899 127.527 70.4653 127.527C70.0406 127.527 69.7026 127.661 69.4513 127.93C69.1999 128.199 69.0743 128.576 69.0743 129.061V133H66.8513V123.38H69.0743V126.721C69.2996 126.4 69.6073 126.145 69.9973 125.954C70.3873 125.763 70.8249 125.668 71.3103 125.668ZM77.834 123.38V133H75.611V123.38H77.834ZM86.855 125.746L82.305 136.445H79.913L81.577 132.753L78.626 125.746H81.109L82.786 130.283L84.45 125.746H86.855ZM95.0678 133L93.1698 129.555H92.6368V133H90.4138V123.874H94.1448C94.8641 123.874 95.4751 124 95.9778 124.251C96.4891 124.502 96.8704 124.849 97.1218 125.291C97.3731 125.724 97.4988 126.21 97.4988 126.747C97.4988 127.354 97.3254 127.895 96.9788 128.372C96.6408 128.849 96.1381 129.187 95.4708 129.386L97.5768 133H95.0678ZM92.6368 127.982H94.0148C94.4221 127.982 94.7254 127.882 94.9248 127.683C95.1328 127.484 95.2368 127.202 95.2368 126.838C95.2368 126.491 95.1328 126.218 94.9248 126.019C94.7254 125.82 94.4221 125.72 94.0148 125.72H92.6368V127.982ZM98.4522 129.36C98.4522 128.615 98.5909 127.96 98.8682 127.397C99.1542 126.834 99.5399 126.4 100.025 126.097C100.511 125.794 101.052 125.642 101.65 125.642C102.162 125.642 102.608 125.746 102.989 125.954C103.379 126.162 103.678 126.435 103.886 126.773V125.746H106.109V133H103.886V131.973C103.67 132.311 103.366 132.584 102.976 132.792C102.595 133 102.149 133.104 101.637 133.104C101.048 133.104 100.511 132.952 100.025 132.649C99.5399 132.337 99.1542 131.899 98.8682 131.336C98.5909 130.764 98.4522 130.105 98.4522 129.36ZM103.886 129.373C103.886 128.818 103.73 128.381 103.418 128.06C103.115 127.739 102.742 127.579 102.3 127.579C101.858 127.579 101.481 127.739 101.169 128.06C100.866 128.372 100.714 128.805 100.714 129.36C100.714 129.915 100.866 130.357 101.169 130.686C101.481 131.007 101.858 131.167 102.3 131.167C102.742 131.167 103.115 131.007 103.418 130.686C103.73 130.365 103.886 129.928 103.886 129.373ZM111.76 131.115V133H110.629C109.823 133 109.195 132.805 108.744 132.415C108.294 132.016 108.068 131.371 108.068 130.478V127.592H107.184V125.746H108.068V123.978H110.291V125.746H111.747V127.592H110.291V130.504C110.291 130.721 110.343 130.877 110.447 130.972C110.551 131.067 110.725 131.115 110.967 131.115H111.76ZM119.837 129.256C119.837 129.464 119.824 129.681 119.798 129.906H114.767C114.801 130.357 114.944 130.703 115.196 130.946C115.456 131.18 115.772 131.297 116.145 131.297C116.699 131.297 117.085 131.063 117.302 130.595H119.668C119.546 131.072 119.325 131.501 119.005 131.882C118.693 132.263 118.298 132.562 117.822 132.779C117.345 132.996 116.812 133.104 116.223 133.104C115.512 133.104 114.879 132.952 114.325 132.649C113.77 132.346 113.337 131.912 113.025 131.349C112.713 130.786 112.557 130.127 112.557 129.373C112.557 128.619 112.708 127.96 113.012 127.397C113.324 126.834 113.757 126.4 114.312 126.097C114.866 125.794 115.503 125.642 116.223 125.642C116.925 125.642 117.549 125.789 118.095 126.084C118.641 126.379 119.065 126.799 119.369 127.345C119.681 127.891 119.837 128.528 119.837 129.256ZM117.562 128.671C117.562 128.29 117.432 127.986 117.172 127.761C116.912 127.536 116.587 127.423 116.197 127.423C115.824 127.423 115.508 127.531 115.248 127.748C114.996 127.965 114.84 128.272 114.78 128.671H117.562Z" fill="white"/>
<path d="M52.76 87.2H46.928L39.896 99.056L32.864 87.2H27.032V104H31.352V92.48L38.336 104H41.456L48.44 92.48V104H52.76V87.2ZM64.2403 104.24C70.0723 104.24 74.0323 102.128 74.0323 96.944C74.0323 91.736 70.0723 89.624 64.2403 89.624C58.3843 89.624 54.4482 91.736 54.4482 96.944C54.4482 102.128 58.3843 104.24 64.2403 104.24ZM64.2403 100.808C60.4243 100.808 58.5523 99.872 58.5523 96.944C58.5523 93.992 60.4243 93.056 64.2403 93.056C68.0323 93.056 69.9043 93.992 69.9043 96.944C69.9043 99.872 68.0323 100.808 64.2403 100.808ZM87.9305 89.624C84.4985 89.624 81.7145 90.752 79.6985 92.336V89.864H75.5945V104H79.6985V96.08C80.9705 94.592 83.9465 93.176 86.7065 93.176C90.0905 93.176 91.0985 94.736 91.0985 97.736V104H95.2265L95.2745 96.176C95.2265 90.968 91.6985 89.624 87.9305 89.624ZM110.57 93.296V89.864H103.874V85.76L99.7464 86.936V89.864H96.0264V93.296H99.7464V99.752C99.7464 102.872 102.098 104.24 105.746 104.24C107.642 104.24 109.202 104.12 110.57 103.88V100.568C108.914 100.808 108.194 100.808 106.898 100.808C104.402 100.808 103.874 100.112 103.874 97.376V93.296H110.57ZM124.587 89.624C121.155 89.624 118.371 90.752 116.355 92.336V84.8H112.251V104H116.355V96.08C117.627 94.592 120.603 93.176 123.363 93.176C126.747 93.176 127.755 94.736 127.755 97.736V104H131.883L131.931 96.176C131.883 90.968 128.355 89.624 124.587 89.624Z" fill="white"/>
<path d="M47.89 62.438V36.086H39.25C39.25 42.518 32.674 42.518 27.73 42.518V49.814C31.234 49.814 35.698 49.814 39.346 46.598L39.298 62.438H27.73V69.686H59.41V62.438H47.89Z" fill="white"/>
<path d="M124.457 49.705H103.814V46.7599H124.457V49.705ZM121.744 29.4724C123.306 31.4877 124.248 33.9124 124.457 36.4522C124.457 40.5164 119.842 43.8149 114.136 43.8149C108.429 43.8149 103.814 40.5164 103.814 36.4522C103.814 32.9476 107.25 26.7188 111.865 25.0696C111.422 24.5395 111.187 23.8768 111.187 23.1995C111.187 22.4184 111.497 21.6693 112.05 21.117C112.603 20.5647 113.353 20.2544 114.136 20.2544C114.918 20.2544 115.668 20.5647 116.221 21.117C116.774 21.6693 117.085 22.4184 117.085 23.1995C117.085 23.8768 116.849 24.5395 116.406 25.0696C117.674 25.5555 118.824 26.2918 119.798 27.2342L113.089 33.9342L115.182 36.0252L121.744 29.4724Z" fill="white"/>
<defs>
<filter id="filter0_d_2_570" x="0" y="0" width="152.44" height="171" filterUnits="userSpaceOnUse" color-interpolation-filters="sRGB">
<feFlood flood-opacity="0" result="BackgroundImageFix"/>
<feColorMatrix in="SourceAlpha" type="matrix" values="0 0 0 0 0 0 0 0 0 0 0 0 0 0 0 0 0 0 127 0" result="hardAlpha"/>
<feOffset dy="4"/>
<feGaussianBlur stdDeviation="2"/>
<feComposite in2="hardAlpha" operator="out"/>
<feColorMatrix type="matrix" values="0 0 0 0 0 0 0 0 0 0 0 0 0 0 0 0 0 0 0.25 0"/>
<feBlend mode="normal" in2="BackgroundImageFix" result="effect1_dropShadow_2_570"/>
<feBlend mode="normal" in="SourceGraphic" in2="effect1_dropShadow_2_570" result="shape"/>
</filter>
</defs>
</svg>
