<svg width="153" height="171" viewBox="0 0 153 171" fill="none" xmlns="http://www.w3.org/2000/svg">
<g filter="url(#filter0_d_2_577)">
<rect x="4" width="144.43" height="163" rx="20" fill="#332F64"/>
<rect x="5.5" y="1.5" width="141.43" height="160" rx="18.5" stroke="white" stroke-width="3"/>
</g>
<path d="M35.2629 128.32C35.7916 128.433 36.2163 128.697 36.5369 129.113C36.8576 129.52 37.0179 129.988 37.0179 130.517C37.0179 131.28 36.7493 131.886 36.2119 132.337C35.6833 132.779 34.9423 133 33.9889 133H29.7379V123.874H33.8459C34.7733 123.874 35.4969 124.086 36.0169 124.511C36.5456 124.936 36.8099 125.512 36.8099 126.24C36.8099 126.777 36.6669 127.224 36.3809 127.579C36.1036 127.934 35.7309 128.181 35.2629 128.32ZM31.9609 127.566H33.4169C33.7809 127.566 34.0583 127.488 34.2489 127.332C34.4483 127.167 34.5479 126.929 34.5479 126.617C34.5479 126.305 34.4483 126.067 34.2489 125.902C34.0583 125.737 33.7809 125.655 33.4169 125.655H31.9609V127.566ZM33.5989 131.206C33.9716 131.206 34.2576 131.124 34.4569 130.959C34.6649 130.786 34.7689 130.539 34.7689 130.218C34.7689 129.897 34.6606 129.646 34.4439 129.464C34.2359 129.282 33.9456 129.191 33.5729 129.191H31.9609V131.206H33.5989ZM39.4253 124.992C39.0353 124.992 38.7146 124.879 38.4633 124.654C38.2206 124.42 38.0993 124.134 38.0993 123.796C38.0993 123.449 38.2206 123.163 38.4633 122.938C38.7146 122.704 39.0353 122.587 39.4253 122.587C39.8066 122.587 40.1186 122.704 40.3613 122.938C40.6126 123.163 40.7383 123.449 40.7383 123.796C40.7383 124.134 40.6126 124.42 40.3613 124.654C40.1186 124.879 39.8066 124.992 39.4253 124.992ZM40.5303 125.746V133H38.3073V125.746H40.5303ZM41.6993 129.36C41.6993 128.615 41.8379 127.96 42.1153 127.397C42.4013 126.834 42.7869 126.4 43.2723 126.097C43.7576 125.794 44.2993 125.642 44.8973 125.642C45.4086 125.642 45.8549 125.746 46.2363 125.954C46.6263 126.162 46.9253 126.435 47.1333 126.773V125.746H49.3563V133H47.1333V131.973C46.9166 132.311 46.6133 132.584 46.2233 132.792C45.8419 133 45.3956 133.104 44.8843 133.104C44.2949 133.104 43.7576 132.952 43.2723 132.649C42.7869 132.337 42.4013 131.899 42.1153 131.336C41.8379 130.764 41.6993 130.105 41.6993 129.36ZM47.1333 129.373C47.1333 128.818 46.9773 128.381 46.6653 128.06C46.3619 127.739 45.9893 127.579 45.5473 127.579C45.1053 127.579 44.7283 127.739 44.4163 128.06C44.1129 128.372 43.9613 128.805 43.9613 129.36C43.9613 129.915 44.1129 130.357 44.4163 130.686C44.7283 131.007 45.1053 131.167 45.5473 131.167C45.9893 131.167 46.3619 131.007 46.6653 130.686C46.9773 130.365 47.1333 129.928 47.1333 129.373ZM55.3845 125.668C56.2338 125.668 56.9098 125.945 57.4125 126.5C57.9238 127.046 58.1795 127.8 58.1795 128.762V133H55.9695V129.061C55.9695 128.576 55.8438 128.199 55.5925 127.93C55.3412 127.661 55.0032 127.527 54.5785 127.527C54.1538 127.527 53.8158 127.661 53.5645 127.93C53.3132 128.199 53.1875 128.576 53.1875 129.061V133H50.9645V125.746H53.1875V126.708C53.4128 126.387 53.7162 126.136 54.0975 125.954C54.4788 125.763 54.9078 125.668 55.3845 125.668ZM64.1443 125.668C64.9936 125.668 65.6696 125.945 66.1723 126.5C66.6836 127.046 66.9393 127.8 66.9393 128.762V133H64.7293V129.061C64.7293 128.576 64.6036 128.199 64.3523 127.93C64.1009 127.661 63.7629 127.527 63.3383 127.527C62.9136 127.527 62.5756 127.661 62.3243 127.93C62.0729 128.199 61.9473 128.576 61.9473 129.061V133H59.7243V125.746H61.9473V126.708C62.1726 126.387 62.4759 126.136 62.8573 125.954C63.2386 125.763 63.6676 125.668 64.1443 125.668ZM75.647 125.746V133H73.424V132.012C73.1987 132.333 72.891 132.593 72.501 132.792C72.1197 132.983 71.695 133.078 71.227 133.078C70.6724 133.078 70.1827 132.957 69.758 132.714C69.3334 132.463 69.004 132.103 68.77 131.635C68.536 131.167 68.419 130.617 68.419 129.984V125.746H70.629V129.685C70.629 130.17 70.7547 130.547 71.006 130.816C71.2574 131.085 71.5954 131.219 72.02 131.219C72.4534 131.219 72.7957 131.085 73.047 130.816C73.2984 130.547 73.424 130.17 73.424 129.685V125.746H75.647ZM76.8018 129.36C76.8018 128.615 76.9405 127.96 77.2178 127.397C77.5038 126.834 77.8895 126.4 78.3748 126.097C78.8601 125.794 79.4018 125.642 79.9998 125.642C80.5111 125.642 80.9575 125.746 81.3388 125.954C81.7288 126.162 82.0278 126.435 82.2358 126.773V125.746H84.4588V133H82.2358V131.973C82.0191 132.311 81.7158 132.584 81.3258 132.792C80.9445 133 80.4981 133.104 79.9868 133.104C79.3975 133.104 78.8601 132.952 78.3748 132.649C77.8895 132.337 77.5038 131.899 77.2178 131.336C76.9405 130.764 76.8018 130.105 76.8018 129.36ZM82.2358 129.373C82.2358 128.818 82.0798 128.381 81.7678 128.06C81.4645 127.739 81.0918 127.579 80.6498 127.579C80.2078 127.579 79.8308 127.739 79.5188 128.06C79.2155 128.372 79.0638 128.805 79.0638 129.36C79.0638 129.915 79.2155 130.357 79.5188 130.686C79.8308 131.007 80.2078 131.167 80.6498 131.167C81.0918 131.167 81.4645 131.007 81.7678 130.686C82.0798 130.365 82.2358 129.928 82.2358 129.373ZM88.29 123.38V133H86.067V123.38H88.29ZM97.3099 133L95.4119 129.555H94.8789V133H92.6559V123.874H96.3869C97.1062 123.874 97.7172 124 98.2199 124.251C98.7312 124.502 99.1126 124.849 99.3639 125.291C99.6152 125.724 99.7409 126.21 99.7409 126.747C99.7409 127.354 99.5676 127.895 99.2209 128.372C98.8829 128.849 98.3802 129.187 97.7129 129.386L99.8189 133H97.3099ZM94.8789 127.982H96.2569C96.6642 127.982 96.9676 127.882 97.1669 127.683C97.3749 127.484 97.4789 127.202 97.4789 126.838C97.4789 126.491 97.3749 126.218 97.1669 126.019C96.9676 125.82 96.6642 125.72 96.2569 125.72H94.8789V127.982ZM100.694 129.36C100.694 128.615 100.833 127.96 101.11 127.397C101.396 126.834 101.782 126.4 102.267 126.097C102.753 125.794 103.294 125.642 103.892 125.642C104.404 125.642 104.85 125.746 105.231 125.954C105.621 126.162 105.92 126.435 106.128 126.773V125.746H108.351V133H106.128V131.973C105.912 132.311 105.608 132.584 105.218 132.792C104.837 133 104.391 133.104 103.879 133.104C103.29 133.104 102.753 132.952 102.267 132.649C101.782 132.337 101.396 131.899 101.11 131.336C100.833 130.764 100.694 130.105 100.694 129.36ZM106.128 129.373C106.128 128.818 105.972 128.381 105.66 128.06C105.357 127.739 104.984 127.579 104.542 127.579C104.1 127.579 103.723 127.739 103.411 128.06C103.108 128.372 102.956 128.805 102.956 129.36C102.956 129.915 103.108 130.357 103.411 130.686C103.723 131.007 104.1 131.167 104.542 131.167C104.984 131.167 105.357 131.007 105.66 130.686C105.972 130.365 106.128 129.928 106.128 129.373ZM114.003 131.115V133H112.872C112.066 133 111.437 132.805 110.987 132.415C110.536 132.016 110.311 131.371 110.311 130.478V127.592H109.427V125.746H110.311V123.978H112.534V125.746H113.99V127.592H112.534V130.504C112.534 130.721 112.586 130.877 112.69 130.972C112.794 131.067 112.967 131.115 113.21 131.115H114.003ZM122.079 129.256C122.079 129.464 122.066 129.681 122.04 129.906H117.009C117.044 130.357 117.187 130.703 117.438 130.946C117.698 131.18 118.014 131.297 118.387 131.297C118.942 131.297 119.327 131.063 119.544 130.595H121.91C121.789 131.072 121.568 131.501 121.247 131.882C120.935 132.263 120.541 132.562 120.064 132.779C119.587 132.996 119.054 133.104 118.465 133.104C117.754 133.104 117.122 132.952 116.567 132.649C116.012 132.346 115.579 131.912 115.267 131.349C114.955 130.786 114.799 130.127 114.799 129.373C114.799 128.619 114.951 127.96 115.254 127.397C115.566 126.834 115.999 126.4 116.554 126.097C117.109 125.794 117.746 125.642 118.465 125.642C119.167 125.642 119.791 125.789 120.337 126.084C120.883 126.379 121.308 126.799 121.611 127.345C121.923 127.891 122.079 128.528 122.079 129.256ZM119.804 128.671C119.804 128.29 119.674 127.986 119.414 127.761C119.154 127.536 118.829 127.423 118.439 127.423C118.066 127.423 117.75 127.531 117.49 127.748C117.239 127.965 117.083 128.272 117.022 128.671H119.804Z" fill="white"/>
<path d="M48.6066 90H43.7466L37.8866 99.88L32.0266 90H27.1666V104H30.7666V94.4L36.5866 104H39.1866L45.0066 94.4V104H48.6066V90ZM58.1735 104.2C63.0335 104.2 66.3335 102.44 66.3335 98.12C66.3335 93.78 63.0335 92.02 58.1735 92.02C53.2935 92.02 50.0135 93.78 50.0135 98.12C50.0135 102.44 53.2935 104.2 58.1735 104.2ZM58.1735 101.34C54.9935 101.34 53.4335 100.56 53.4335 98.12C53.4335 95.66 54.9935 94.88 58.1735 94.88C61.3335 94.88 62.8935 95.66 62.8935 98.12C62.8935 100.56 61.3335 101.34 58.1735 101.34ZM77.9154 92.02C75.0554 92.02 72.7354 92.96 71.0554 94.28V92.22H67.6354V104H71.0554V97.4C72.1154 96.16 74.5954 94.98 76.8954 94.98C79.7154 94.98 80.5554 96.28 80.5554 98.78V104H83.9954L84.0354 97.48C83.9954 93.14 81.0554 92.02 77.9154 92.02ZM96.782 95.08V92.22H91.202V88.8L87.762 89.78V92.22H84.662V95.08H87.762V100.46C87.762 103.06 89.722 104.2 92.762 104.2C94.342 104.2 95.642 104.1 96.782 103.9V101.14C95.402 101.34 94.802 101.34 93.722 101.34C91.642 101.34 91.202 100.76 91.202 98.48V95.08H96.782ZM108.462 92.02C105.602 92.02 103.282 92.96 101.602 94.28V88H98.1823V104H101.602V97.4C102.662 96.16 105.142 94.98 107.442 94.98C110.262 94.98 111.102 96.28 111.102 98.78V104H114.542L114.582 97.48C114.542 93.14 111.602 92.02 108.462 92.02ZM115.756 99.86C115.756 103.62 119.956 104.2 124.496 104.2C129.036 104.2 132.036 103.62 132.036 100.3C132.036 97.16 128.896 97.04 124.296 96.7C120.236 96.4 119.616 96.28 119.616 95.54C119.616 94.86 120.536 94.62 123.776 94.62C126.956 94.62 128.196 94.86 128.196 95.84H131.636C131.636 92.6 128.416 92.02 123.976 92.02C119.776 92.02 116.176 92.6 116.176 95.68C116.176 98.52 118.716 98.92 123.896 99.22C128.036 99.48 128.596 99.54 128.596 100.44C128.596 101.36 127.996 101.6 124.296 101.6C120.476 101.6 119.176 101.12 119.176 99.86H115.756Z" fill="white"/>
<path d="M43.4533 52.0784C37.1173 52.0784 32.6533 53.7104 30.0613 55.7264C30.9253 48.9104 34.6693 47.5184 41.4853 47.5184C47.7253 47.5184 52.6213 48.6224 57.3733 49.5344V42.6704C53.2933 41.8064 47.7253 40.6544 39.3733 40.6544C29.4853 40.6544 21.2293 44.8304 21.2293 58.7504C21.2293 69.5984 26.9893 75.2144 41.3893 75.2144C53.2453 75.2144 59.6293 71.2784 59.6293 63.4544C59.6293 55.3424 53.2453 52.0784 43.4533 52.0784ZM40.4293 68.3504C32.7973 68.3504 29.8693 66.2384 29.8693 62.7344C29.8693 59.1824 33.0373 57.1664 40.4293 57.1664C48.6373 57.1664 50.9893 59.2304 50.9893 62.7344C50.9893 66.2384 48.5893 68.3504 40.4293 68.3504Z" fill="white"/>
<path d="M121.56 53.3114H100.919V50.3664H121.56V53.3114ZM118.611 35.6411C116.518 35.6411 114.571 36.7749 113.525 38.5861H112.714V31.2235H117.137V28.2784H112.714V23.8608H109.765V28.2784H105.342V31.2235H109.765V38.5861H108.954C107.332 35.7736 103.72 34.8017 100.919 36.4362C99.5604 37.2121 98.5653 38.4935 98.1509 40.0003C97.7364 41.507 97.9363 43.1164 98.7069 44.4763C99.798 46.3022 101.759 47.4213 103.867 47.4213H118.611C120.175 47.4213 121.675 46.8007 122.781 45.6961C123.887 44.5915 124.509 43.0934 124.509 41.5312C124.509 39.969 123.887 38.4709 122.781 37.3663C121.675 36.2616 120.175 35.6411 118.611 35.6411Z" fill="white"/>
<defs>
<filter id="filter0_d_2_577" x="0" y="0" width="152.43" height="171" filterUnits="userSpaceOnUse" color-interpolation-filters="sRGB">
<feFlood flood-opacity="0" result="BackgroundImageFix"/>
<feColorMatrix in="SourceAlpha" type="matrix" values="0 0 0 0 0 0 0 0 0 0 0 0 0 0 0 0 0 0 127 0" result="hardAlpha"/>
<feOffset dy="4"/>
<feGaussianBlur stdDeviation="2"/>
<feComposite in2="hardAlpha" operator="out"/>
<feColorMatrix type="matrix" values="0 0 0 0 0 0 0 0 0 0 0 0 0 0 0 0 0 0 0.25 0"/>
<feBlend mode="normal" in2="BackgroundImageFix" result="effect1_dropShadow_2_577"/>
<feBlend mode="normal" in="SourceGraphic" in2="effect1_dropShadow_2_577" result="shape"/>
</filter>
</defs>
</svg>
