<svg width="153" height="171" viewBox="0 0 153 171" fill="none" xmlns="http://www.w3.org/2000/svg">
<g filter="url(#filter0_d_2_563)">
<rect x="4" width="144.44" height="163" rx="20" fill="#3E3E3E"/>
<rect x="5.5" y="1.5" width="141.44" height="160" rx="18.5" stroke="white" stroke-width="3"/>
</g>
<path d="M48.159 125.874L45.78 135H43.089L41.633 128.994L40.125 135H37.434L35.12 125.874H37.499L38.812 132.517L40.437 125.874H42.881L44.441 132.517L45.767 125.874H48.159ZM56.1119 131.256C56.1119 131.464 56.0989 131.681 56.0729 131.906H51.0419C51.0766 132.357 51.2196 132.703 51.4709 132.946C51.7309 133.18 52.0472 133.297 52.4199 133.297C52.9746 133.297 53.3602 133.063 53.5769 132.595H55.9429C55.8216 133.072 55.6006 133.501 55.2799 133.882C54.9679 134.263 54.5736 134.562 54.0969 134.779C53.6202 134.996 53.0872 135.104 52.4979 135.104C51.7872 135.104 51.1546 134.952 50.5999 134.649C50.0452 134.346 49.6119 133.912 49.2999 133.349C48.9879 132.786 48.8319 132.127 48.8319 131.373C48.8319 130.619 48.9836 129.96 49.2869 129.397C49.5989 128.834 50.0322 128.4 50.5869 128.097C51.1416 127.794 51.7786 127.642 52.4979 127.642C53.1999 127.642 53.8239 127.789 54.3699 128.084C54.9159 128.379 55.3406 128.799 55.6439 129.345C55.9559 129.891 56.1119 130.528 56.1119 131.256ZM53.8369 130.671C53.8369 130.29 53.7069 129.986 53.4469 129.761C53.1869 129.536 52.8619 129.423 52.4719 129.423C52.0992 129.423 51.7829 129.531 51.5229 129.748C51.2716 129.965 51.1156 130.272 51.0549 130.671H53.8369ZM64.1226 131.256C64.1226 131.464 64.1096 131.681 64.0836 131.906H59.0526C59.0873 132.357 59.2303 132.703 59.4816 132.946C59.7416 133.18 60.058 133.297 60.4306 133.297C60.9853 133.297 61.371 133.063 61.5876 132.595H63.9536C63.8323 133.072 63.6113 133.501 63.2906 133.882C62.9786 134.263 62.5843 134.562 62.1076 134.779C61.631 134.996 61.098 135.104 60.5086 135.104C59.798 135.104 59.1653 134.952 58.6106 134.649C58.056 134.346 57.6226 133.912 57.3106 133.349C56.9986 132.786 56.8426 132.127 56.8426 131.373C56.8426 130.619 56.9943 129.96 57.2976 129.397C57.6096 128.834 58.043 128.4 58.5976 128.097C59.1523 127.794 59.7893 127.642 60.5086 127.642C61.2106 127.642 61.8346 127.789 62.3806 128.084C62.9266 128.379 63.3513 128.799 63.6546 129.345C63.9666 129.891 64.1226 130.528 64.1226 131.256ZM61.8476 130.671C61.8476 130.29 61.7176 129.986 61.4576 129.761C61.1976 129.536 60.8726 129.423 60.4826 129.423C60.11 129.423 59.7936 129.531 59.5336 129.748C59.2823 129.965 59.1263 130.272 59.0656 130.671H61.8476ZM69.7284 135L67.5184 131.958V135H65.2954V125.38H67.5184V130.697L69.7154 127.746H72.4584L69.4424 131.386L72.4844 135H69.7284ZM75.5545 125.38V135H73.3315V125.38H75.5545ZM84.5755 127.746L80.0255 138.445H77.6335L79.2975 134.753L76.3465 127.746H78.8295L80.5065 132.283L82.1705 127.746H84.5755ZM92.7883 135L90.8903 131.555H90.3573V135H88.1343V125.874H91.8653C92.5846 125.874 93.1956 126 93.6983 126.251C94.2096 126.502 94.5909 126.849 94.8423 127.291C95.0936 127.724 95.2193 128.21 95.2193 128.747C95.2193 129.354 95.0459 129.895 94.6993 130.372C94.3613 130.849 93.8586 131.187 93.1913 131.386L95.2973 135H92.7883ZM90.3573 129.982H91.7353C92.1426 129.982 92.4459 129.882 92.6453 129.683C92.8533 129.484 92.9573 129.202 92.9573 128.838C92.9573 128.491 92.8533 128.218 92.6453 128.019C92.4459 127.82 92.1426 127.72 91.7353 127.72H90.3573V129.982ZM96.1727 131.36C96.1727 130.615 96.3114 129.96 96.5887 129.397C96.8747 128.834 97.2604 128.4 97.7457 128.097C98.231 127.794 98.7727 127.642 99.3707 127.642C99.882 127.642 100.328 127.746 100.71 127.954C101.1 128.162 101.399 128.435 101.607 128.773V127.746H103.83V135H101.607V133.973C101.39 134.311 101.087 134.584 100.697 134.792C100.315 135 99.869 135.104 99.3577 135.104C98.7684 135.104 98.231 134.952 97.7457 134.649C97.2604 134.337 96.8747 133.899 96.5887 133.336C96.3114 132.764 96.1727 132.105 96.1727 131.36ZM101.607 131.373C101.607 130.818 101.451 130.381 101.139 130.06C100.835 129.739 100.463 129.579 100.021 129.579C99.5787 129.579 99.2017 129.739 98.8897 130.06C98.5864 130.372 98.4347 130.805 98.4347 131.36C98.4347 131.915 98.5864 132.357 98.8897 132.686C99.2017 133.007 99.5787 133.167 100.021 133.167C100.463 133.167 100.835 133.007 101.139 132.686C101.451 132.365 101.607 131.928 101.607 131.373ZM109.481 133.115V135H108.35C107.544 135 106.916 134.805 106.465 134.415C106.014 134.016 105.789 133.371 105.789 132.478V129.592H104.905V127.746H105.789V125.978H108.012V127.746H109.468V129.592H108.012V132.504C108.012 132.721 108.064 132.877 108.168 132.972C108.272 133.067 108.445 133.115 108.688 133.115H109.481ZM117.557 131.256C117.557 131.464 117.544 131.681 117.518 131.906H112.487C112.522 132.357 112.665 132.703 112.916 132.946C113.176 133.18 113.493 133.297 113.865 133.297C114.42 133.297 114.806 133.063 115.022 132.595H117.388C117.267 133.072 117.046 133.501 116.725 133.882C116.413 134.263 116.019 134.562 115.542 134.779C115.066 134.996 114.533 135.104 113.943 135.104C113.233 135.104 112.6 134.952 112.045 134.649C111.491 134.346 111.057 133.912 110.745 133.349C110.433 132.786 110.277 132.127 110.277 131.373C110.277 130.619 110.429 129.96 110.732 129.397C111.044 128.834 111.478 128.4 112.032 128.097C112.587 127.794 113.224 127.642 113.943 127.642C114.645 127.642 115.269 127.789 115.815 128.084C116.361 128.379 116.786 128.799 117.089 129.345C117.401 129.891 117.557 130.528 117.557 131.256ZM115.282 130.671C115.282 130.29 115.152 129.986 114.892 129.761C114.632 129.536 114.307 129.423 113.917 129.423C113.545 129.423 113.228 129.531 112.968 129.748C112.717 129.965 112.561 130.272 112.5 130.671H115.282Z" fill="white"/>
<path d="M48.224 76.2H36.032V93H48.224C52.568 93 56.384 90.312 56.384 84.6C56.384 78.888 52.568 76.2 48.224 76.2ZM46.592 89.376H40.352V79.824H46.592C49.856 79.824 52.064 80.52 52.064 84.6C52.064 88.68 49.856 89.376 46.592 89.376ZM67.1711 78.624C64.2191 78.624 61.3871 79.152 58.5071 80.088L59.9711 83.088C62.8751 82.224 65.1311 82.056 66.9791 82.056C68.8991 82.056 72.3551 82.272 72.3551 84.96C70.5071 84.336 68.2751 83.952 65.8511 83.952C61.3631 83.952 57.3311 85.104 57.3311 88.776C57.3311 91.968 59.8031 93.24 63.7631 93.24C67.0991 93.24 69.8591 92.472 72.3551 91.248V93H76.4831V85.872C76.4351 80.52 73.0751 78.624 67.1711 78.624ZM72.3551 88.608C70.2431 89.52 67.1711 90.216 64.9391 90.216C62.8031 90.216 61.4351 90.096 61.4351 88.608C61.4351 87.168 63.2831 86.64 66.3551 86.64C68.9711 86.64 70.9151 87.048 72.3551 87.504V88.608ZM91.9747 78.864L86.4547 90.528L80.4067 78.864H75.8467L83.1667 93H85.2787L82.4227 99H86.9587L96.5107 78.864H91.9747ZM96.1904 88.032C96.1904 92.544 101.23 93.24 106.678 93.24C112.126 93.24 115.726 92.544 115.726 88.56C115.726 84.792 111.958 84.648 106.438 84.24C101.566 83.88 100.822 83.736 100.822 82.848C100.822 82.032 101.926 81.744 105.814 81.744C109.63 81.744 111.118 82.032 111.118 83.208H115.246C115.246 79.32 111.382 78.624 106.054 78.624C101.014 78.624 96.6944 79.32 96.6944 83.016C96.6944 86.424 99.7424 86.904 105.958 87.264C110.926 87.576 111.598 87.648 111.598 88.728C111.598 89.832 110.878 90.12 106.438 90.12C101.854 90.12 100.294 89.544 100.294 88.032H96.1904Z" fill="white"/>
<path d="M35.2747 37.092V42.528H53.0587C43.8787 47.568 40.8187 55.812 40.8187 62.292H47.2987C47.2987 55.812 51.7627 47.568 62.0227 42.528V37.092H35.2747Z" fill="white"/>
<path d="M129.735 50.4262H109.092V47.4811H129.735V50.4262ZM120.888 20.9756C119.045 20.9756 117.32 21.8886 116.302 23.42L112.041 29.8108L114.99 32.7558L118.027 30.7385C118.676 30.282 119.62 30.4587 120.077 31.136C120.106 31.1802 120.151 31.2244 120.151 31.2833C120.593 32.1521 120.431 33.1976 119.738 33.8897L112.66 40.9578C111.849 41.7824 111.849 43.1077 112.675 43.9176C113.058 44.3005 113.589 44.5361 114.135 44.5361H126.786V26.8657C126.786 25.3035 126.164 23.8054 125.058 22.7008C123.952 21.5962 122.452 20.9756 120.888 20.9756Z" fill="white"/>
<defs>
<filter id="filter0_d_2_563" x="0" y="0" width="152.44" height="171" filterUnits="userSpaceOnUse" color-interpolation-filters="sRGB">
<feFlood flood-opacity="0" result="BackgroundImageFix"/>
<feColorMatrix in="SourceAlpha" type="matrix" values="0 0 0 0 0 0 0 0 0 0 0 0 0 0 0 0 0 0 127 0" result="hardAlpha"/>
<feOffset dy="4"/>
<feGaussianBlur stdDeviation="2"/>
<feComposite in2="hardAlpha" operator="out"/>
<feColorMatrix type="matrix" values="0 0 0 0 0 0 0 0 0 0 0 0 0 0 0 0 0 0 0.25 0"/>
<feBlend mode="normal" in2="BackgroundImageFix" result="effect1_dropShadow_2_563"/>
<feBlend mode="normal" in="SourceGraphic" in2="effect1_dropShadow_2_563" result="shape"/>
</filter>
</defs>
</svg>
