<svg width="153" height="171" viewBox="0 0 153 171" fill="none" xmlns="http://www.w3.org/2000/svg">
<g filter="url(#filter0_d_2_557)">
<rect x="4" width="144.441" height="163" rx="20" fill="white"/>
<rect x="5.5" y="1.5" width="141.441" height="160" rx="18.5" stroke="#1A1363" stroke-width="3"/>
</g>
<g filter="url(#filter1_d_2_557)">
<rect x="12.7622" y="9.56934" width="127.723" height="144.668" rx="9.5" stroke="#1A1363" stroke-width="3" shape-rendering="crispEdges"/>
</g>
<path d="M59.2263 118.388H55.8203L55.2743 120H52.9473L56.2493 110.874H58.8233L62.1253 120H59.7723L59.2263 118.388ZM58.6543 116.672L57.5233 113.331L56.4053 116.672H58.6543ZM67.5502 112.668C68.3996 112.668 69.0756 112.945 69.5782 113.5C70.0896 114.046 70.3452 114.8 70.3452 115.762V120H68.1352V116.061C68.1352 115.576 68.0096 115.199 67.7582 114.93C67.5069 114.661 67.1689 114.527 66.7442 114.527C66.3196 114.527 65.9816 114.661 65.7302 114.93C65.4789 115.199 65.3532 115.576 65.3532 116.061V120H63.1302V112.746H65.3532V113.708C65.5786 113.387 65.8819 113.136 66.2632 112.954C66.6446 112.763 67.0736 112.668 67.5502 112.668ZM76.31 112.668C77.1593 112.668 77.8353 112.945 78.338 113.5C78.8493 114.046 79.105 114.8 79.105 115.762V120H76.895V116.061C76.895 115.576 76.7693 115.199 76.518 114.93C76.2667 114.661 75.9287 114.527 75.504 114.527C75.0793 114.527 74.7413 114.661 74.49 114.93C74.2387 115.199 74.113 115.576 74.113 116.061V120H71.89V112.746H74.113V113.708C74.3383 113.387 74.6417 113.136 75.023 112.954C75.4043 112.763 75.8333 112.668 76.31 112.668ZM87.8128 112.746V120H85.5898V119.012C85.3644 119.333 85.0568 119.593 84.6668 119.792C84.2854 119.983 83.8608 120.078 83.3928 120.078C82.8381 120.078 82.3484 119.957 81.9238 119.714C81.4991 119.463 81.1698 119.103 80.9358 118.635C80.7018 118.167 80.5848 117.617 80.5848 116.984V112.746H82.7948V116.685C82.7948 117.17 82.9204 117.547 83.1718 117.816C83.4231 118.085 83.7611 118.219 84.1858 118.219C84.6191 118.219 84.9614 118.085 85.2128 117.816C85.4641 117.547 85.5898 117.17 85.5898 116.685V112.746H87.8128ZM88.9675 116.36C88.9675 115.615 89.1062 114.96 89.3835 114.397C89.6695 113.834 90.0552 113.4 90.5405 113.097C91.0258 112.794 91.5675 112.642 92.1655 112.642C92.6768 112.642 93.1232 112.746 93.5045 112.954C93.8945 113.162 94.1935 113.435 94.4015 113.773V112.746H96.6245V120H94.4015V118.973C94.1848 119.311 93.8815 119.584 93.4915 119.792C93.1102 120 92.6638 120.104 92.1525 120.104C91.5632 120.104 91.0258 119.952 90.5405 119.649C90.0552 119.337 89.6695 118.899 89.3835 118.336C89.1062 117.764 88.9675 117.105 88.9675 116.36ZM94.4015 116.373C94.4015 115.818 94.2455 115.381 93.9335 115.06C93.6302 114.739 93.2575 114.579 92.8155 114.579C92.3735 114.579 91.9965 114.739 91.6845 115.06C91.3812 115.372 91.2295 115.805 91.2295 116.36C91.2295 116.915 91.3812 117.357 91.6845 117.686C91.9965 118.007 92.3735 118.167 92.8155 118.167C93.2575 118.167 93.6302 118.007 93.9335 117.686C94.2455 117.365 94.4015 116.928 94.4015 116.373ZM100.456 110.38V120H98.2328V110.38H100.456ZM45.7577 130.874V140H43.5347V134.527L41.4937 140H39.6997L37.6457 134.514V140H35.4227V130.874H38.0487L40.6097 137.192L43.1447 130.874H45.7577ZM54.1943 136.256C54.1943 136.464 54.1813 136.681 54.1553 136.906H49.1243C49.159 137.357 49.302 137.703 49.5533 137.946C49.8133 138.18 50.1296 138.297 50.5023 138.297C51.057 138.297 51.4426 138.063 51.6593 137.595H54.0253C53.904 138.072 53.683 138.501 53.3623 138.882C53.0503 139.263 52.656 139.562 52.1793 139.779C51.7026 139.996 51.1696 140.104 50.5803 140.104C49.8696 140.104 49.237 139.952 48.6823 139.649C48.1276 139.346 47.6943 138.912 47.3823 138.349C47.0703 137.786 46.9143 137.127 46.9143 136.373C46.9143 135.619 47.066 134.96 47.3693 134.397C47.6813 133.834 48.1146 133.4 48.6693 133.097C49.224 132.794 49.861 132.642 50.5803 132.642C51.2823 132.642 51.9063 132.789 52.4523 133.084C52.9983 133.379 53.423 133.799 53.7263 134.345C54.0383 134.891 54.1943 135.528 54.1943 136.256ZM51.9193 135.671C51.9193 135.29 51.7893 134.986 51.5293 134.761C51.2693 134.536 50.9443 134.423 50.5543 134.423C50.1816 134.423 49.8653 134.531 49.6053 134.748C49.354 134.965 49.198 135.272 49.1373 135.671H51.9193ZM64.623 132.668C65.5244 132.668 66.2394 132.941 66.768 133.487C67.3054 134.033 67.574 134.791 67.574 135.762V140H65.364V136.061C65.364 135.593 65.2384 135.233 64.987 134.982C64.7444 134.722 64.4064 134.592 63.973 134.592C63.5397 134.592 63.1974 134.722 62.946 134.982C62.7034 135.233 62.582 135.593 62.582 136.061V140H60.372V136.061C60.372 135.593 60.2464 135.233 59.995 134.982C59.7524 134.722 59.4144 134.592 58.981 134.592C58.5477 134.592 58.2054 134.722 57.954 134.982C57.7114 135.233 57.59 135.593 57.59 136.061V140H55.367V132.746H57.59V133.656C57.8154 133.353 58.11 133.114 58.474 132.941C58.838 132.759 59.2497 132.668 59.709 132.668C60.255 132.668 60.7404 132.785 61.165 133.019C61.5984 133.253 61.9364 133.587 62.179 134.02C62.4304 133.621 62.7727 133.296 63.206 133.045C63.6394 132.794 64.1117 132.668 64.623 132.668ZM71.3518 133.773C71.5598 133.435 71.8588 133.162 72.2488 132.954C72.6388 132.746 73.0851 132.642 73.5878 132.642C74.1858 132.642 74.7274 132.794 75.2128 133.097C75.6981 133.4 76.0794 133.834 76.3568 134.397C76.6428 134.96 76.7858 135.615 76.7858 136.36C76.7858 137.105 76.6428 137.764 76.3568 138.336C76.0794 138.899 75.6981 139.337 75.2128 139.649C74.7274 139.952 74.1858 140.104 73.5878 140.104C73.0764 140.104 72.6301 140.004 72.2488 139.805C71.8674 139.597 71.5684 139.324 71.3518 138.986V140H69.1288V130.38H71.3518V133.773ZM74.5238 136.36C74.5238 135.805 74.3678 135.372 74.0558 135.06C73.7524 134.739 73.3754 134.579 72.9248 134.579C72.4828 134.579 72.1058 134.739 71.7938 135.06C71.4904 135.381 71.3388 135.818 71.3388 136.373C71.3388 136.928 71.4904 137.365 71.7938 137.686C72.1058 138.007 72.4828 138.167 72.9248 138.167C73.3668 138.167 73.7438 138.007 74.0558 137.686C74.3678 137.357 74.5238 136.915 74.5238 136.36ZM84.79 136.256C84.79 136.464 84.777 136.681 84.751 136.906H79.72C79.7547 137.357 79.8977 137.703 80.149 137.946C80.409 138.18 80.7253 138.297 81.098 138.297C81.6527 138.297 82.0383 138.063 82.255 137.595H84.621C84.4997 138.072 84.2787 138.501 83.958 138.882C83.646 139.263 83.2517 139.562 82.775 139.779C82.2983 139.996 81.7653 140.104 81.176 140.104C80.4653 140.104 79.8327 139.952 79.278 139.649C78.7233 139.346 78.29 138.912 77.978 138.349C77.666 137.786 77.51 137.127 77.51 136.373C77.51 135.619 77.6617 134.96 77.965 134.397C78.277 133.834 78.7103 133.4 79.265 133.097C79.8197 132.794 80.4567 132.642 81.176 132.642C81.878 132.642 82.502 132.789 83.048 133.084C83.594 133.379 84.0187 133.799 84.322 134.345C84.634 134.891 84.79 135.528 84.79 136.256ZM82.515 135.671C82.515 135.29 82.385 134.986 82.125 134.761C81.865 134.536 81.54 134.423 81.15 134.423C80.7773 134.423 80.461 134.531 80.201 134.748C79.9497 134.965 79.7937 135.272 79.733 135.671H82.515ZM88.1857 133.955C88.4457 133.556 88.7707 133.244 89.1607 133.019C89.5507 132.785 89.9841 132.668 90.4607 132.668V135.021H89.8497C89.2951 135.021 88.8791 135.142 88.6017 135.385C88.3244 135.619 88.1857 136.035 88.1857 136.633V140H85.9627V132.746H88.1857V133.955ZM94.4743 140.104C93.8416 140.104 93.2783 139.996 92.7843 139.779C92.2903 139.562 91.9003 139.268 91.6143 138.895C91.3283 138.514 91.168 138.089 91.1333 137.621H93.3303C93.3563 137.872 93.4733 138.076 93.6813 138.232C93.8893 138.388 94.145 138.466 94.4483 138.466C94.7256 138.466 94.938 138.414 95.0853 138.31C95.2413 138.197 95.3193 138.054 95.3193 137.881C95.3193 137.673 95.211 137.521 94.9943 137.426C94.7776 137.322 94.4266 137.209 93.9413 137.088C93.4213 136.967 92.988 136.841 92.6413 136.711C92.2946 136.572 91.9956 136.36 91.7443 136.074C91.493 135.779 91.3673 135.385 91.3673 134.891C91.3673 134.475 91.48 134.098 91.7053 133.76C91.9393 133.413 92.2773 133.14 92.7193 132.941C93.17 132.742 93.703 132.642 94.3183 132.642C95.2283 132.642 95.9433 132.867 96.4633 133.318C96.992 133.769 97.2953 134.367 97.3733 135.112H95.3193C95.2846 134.861 95.172 134.661 94.9813 134.514C94.7993 134.367 94.5566 134.293 94.2533 134.293C93.9933 134.293 93.794 134.345 93.6553 134.449C93.5166 134.544 93.4473 134.679 93.4473 134.852C93.4473 135.06 93.5556 135.216 93.7723 135.32C93.9976 135.424 94.3443 135.528 94.8123 135.632C95.3496 135.771 95.7873 135.909 96.1253 136.048C96.4633 136.178 96.758 136.395 97.0093 136.698C97.2693 136.993 97.4036 137.391 97.4123 137.894C97.4123 138.319 97.291 138.7 97.0483 139.038C96.8143 139.367 96.472 139.627 96.0213 139.818C95.5793 140.009 95.0636 140.104 94.4743 140.104ZM103.231 132.668C104.063 132.668 104.731 132.945 105.233 133.5C105.736 134.046 105.987 134.8 105.987 135.762V140H103.777V136.061C103.777 135.576 103.652 135.199 103.4 134.93C103.149 134.661 102.811 134.527 102.386 134.527C101.962 134.527 101.624 134.661 101.372 134.93C101.121 135.199 100.995 135.576 100.995 136.061V140H98.7723V130.38H100.995V133.721C101.221 133.4 101.528 133.145 101.918 132.954C102.308 132.763 102.746 132.668 103.231 132.668ZM108.65 131.992C108.26 131.992 107.939 131.879 107.688 131.654C107.445 131.42 107.324 131.134 107.324 130.796C107.324 130.449 107.445 130.163 107.688 129.938C107.939 129.704 108.26 129.587 108.65 129.587C109.031 129.587 109.343 129.704 109.586 129.938C109.837 130.163 109.963 130.449 109.963 130.796C109.963 131.134 109.837 131.42 109.586 131.654C109.343 131.879 109.031 131.992 108.65 131.992ZM109.755 132.746V140H107.532V132.746H109.755ZM113.589 133.773C113.806 133.435 114.105 133.162 114.486 132.954C114.867 132.746 115.314 132.642 115.825 132.642C116.423 132.642 116.965 132.794 117.45 133.097C117.935 133.4 118.317 133.834 118.594 134.397C118.88 134.96 119.023 135.615 119.023 136.36C119.023 137.105 118.88 137.764 118.594 138.336C118.317 138.899 117.935 139.337 117.45 139.649C116.965 139.952 116.423 140.104 115.825 140.104C115.322 140.104 114.876 140 114.486 139.792C114.105 139.584 113.806 139.315 113.589 138.986V143.458H111.366V132.746H113.589V133.773ZM116.761 136.36C116.761 135.805 116.605 135.372 116.293 135.06C115.99 134.739 115.613 134.579 115.162 134.579C114.72 134.579 114.343 134.739 114.031 135.06C113.728 135.381 113.576 135.818 113.576 136.373C113.576 136.928 113.728 137.365 114.031 137.686C114.343 138.007 114.72 138.167 115.162 138.167C115.604 138.167 115.981 138.007 116.293 137.686C116.605 137.357 116.761 136.915 116.761 136.36Z" fill="#1A1363"/>
<path d="M98.1419 91.7213H56.7195V85.8038H98.1419V91.7213ZM89.2657 79.8863H65.5957L72.0458 56.2164H65.5957V50.2989H73.6435L73.8506 49.5296C71.8096 48.6425 70.1812 47.0141 69.2942 44.9731C67.3118 40.4758 69.3533 35.2389 73.8506 33.2861C78.3479 31.3037 83.5849 33.3453 85.5377 37.8425C86.009 38.9087 86.265 40.0574 86.291 41.2228C86.3169 42.3882 86.1123 43.5472 85.6889 44.6333C85.2655 45.7193 84.6316 46.711 83.8237 47.5512C83.0158 48.3915 82.0498 49.0639 80.9812 49.5296L81.1883 50.2989H89.2657V56.2164H82.8156L89.2657 79.8863Z" fill="#1A1363"/>
<defs>
<filter id="filter0_d_2_557" x="0" y="0" width="152.441" height="171" filterUnits="userSpaceOnUse" color-interpolation-filters="sRGB">
<feFlood flood-opacity="0" result="BackgroundImageFix"/>
<feColorMatrix in="SourceAlpha" type="matrix" values="0 0 0 0 0 0 0 0 0 0 0 0 0 0 0 0 0 0 127 0" result="hardAlpha"/>
<feOffset dy="4"/>
<feGaussianBlur stdDeviation="2"/>
<feComposite in2="hardAlpha" operator="out"/>
<feColorMatrix type="matrix" values="0 0 0 0 0 0 0 0 0 0 0 0 0 0 0 0 0 0 0.25 0"/>
<feBlend mode="normal" in2="BackgroundImageFix" result="effect1_dropShadow_2_557"/>
<feBlend mode="normal" in="SourceGraphic" in2="effect1_dropShadow_2_557" result="shape"/>
</filter>
<filter id="filter1_d_2_557" x="7.26221" y="8.06934" width="138.723" height="155.668" filterUnits="userSpaceOnUse" color-interpolation-filters="sRGB">
<feFlood flood-opacity="0" result="BackgroundImageFix"/>
<feColorMatrix in="SourceAlpha" type="matrix" values="0 0 0 0 0 0 0 0 0 0 0 0 0 0 0 0 0 0 127 0" result="hardAlpha"/>
<feOffset dy="4"/>
<feGaussianBlur stdDeviation="2"/>
<feComposite in2="hardAlpha" operator="out"/>
<feColorMatrix type="matrix" values="0 0 0 0 0 0 0 0 0 0 0 0 0 0 0 0 0 0 0.25 0"/>
<feBlend mode="normal" in2="BackgroundImageFix" result="effect1_dropShadow_2_557"/>
<feBlend mode="normal" in="SourceGraphic" in2="effect1_dropShadow_2_557" result="shape"/>
</filter>
</defs>
</svg>
