<svg width="309" height="62" viewBox="0 0 309 62" fill="none" xmlns="http://www.w3.org/2000/svg">
<path d="M69.0341 0.599998H52.6501V5.432H63.2741V11.768C63.2741 14.872 62.4101 18.488 55.5941 18.488C48.7781 18.488 47.9141 14.904 47.9141 11.768H42.1541C42.1541 19.576 46.3781 23.32 55.5941 23.32C64.7781 23.32 69.0341 19.544 69.0341 11.768V0.599998ZM88.2079 23.32C98.0319 23.32 102.288 19.192 102.288 11.768C102.288 4.376 98.0319 0.279999 88.2079 0.279999C78.3519 0.279999 74.1279 4.344 74.1279 11.768C74.1279 19.224 78.3519 23.32 88.2079 23.32ZM88.2079 18.488C82.2239 18.488 79.8879 16.376 79.8879 11.768C79.8879 7.192 82.1919 5.112 88.2079 5.112C94.2239 5.112 96.5279 7.224 96.5279 11.768C96.5279 16.344 94.1919 18.488 88.2079 18.488ZM113.345 0.599998H107.585V23H113.345V0.599998ZM142.202 0.599998V17.432L126.906 0.599998H119.098V23H124.858V6.2L140.122 23H147.962V0.599998H142.202ZM34.9519 38.6H27.1759L17.7999 54.408L8.42388 38.6H0.647881V61H6.40788V45.64L15.7199 61H19.8799L29.1919 45.64V61H34.9519V38.6ZM64.4029 43.176V38.6H40.7229V61H64.4029V56.424H46.4829V51.88H64.4029V47.72H46.4829V43.176H64.4029ZM104.008 38.6H96.2321L86.8561 54.408L77.4801 38.6H69.7041V61H75.4641V45.64L84.7761 61H88.9361L98.2481 45.64V61H104.008V38.6ZM134.387 48.84C135.507 47.592 136.147 46.056 136.147 44.488C136.147 41.192 134.579 38.6 129.491 38.6H109.779V61H130.259C135.347 61 137.555 58.248 137.555 54.472C137.555 51.88 136.307 50.024 134.387 48.84ZM115.539 42.76H127.411C128.979 42.76 130.387 42.76 130.387 45.064C130.387 47.4 128.979 47.4 127.443 47.4H127.411H115.539V42.76ZM128.851 56.552H115.539V51.816H128.851C130.387 51.816 131.795 51.816 131.795 54.184C131.795 56.552 130.387 56.552 128.851 56.552ZM166.347 43.176V38.6H142.667V61H166.347V56.424H148.427V51.88H166.347V47.72H148.427V43.176H166.347Z" fill="white"/>
<path d="M185.508 23.32C195.332 23.32 199.588 19.192 199.588 11.768C199.588 4.376 195.332 0.279999 185.508 0.279999C175.652 0.279999 171.428 4.344 171.428 11.768C171.428 19.224 175.652 23.32 185.508 23.32ZM185.508 18.488C179.524 18.488 177.188 16.376 177.188 11.768C177.188 7.192 179.492 5.112 185.508 5.112C191.524 5.112 193.828 7.224 193.828 11.768C193.828 16.344 191.492 18.488 185.508 18.488ZM233.202 11.768V0.599998H227.442V11.768C227.442 14.872 226.578 18.488 219.122 18.488C211.666 18.488 210.802 14.904 210.802 11.768V0.599998H205.042V11.768C205.042 19.576 209.266 23.32 219.122 23.32C228.946 23.32 233.202 19.544 233.202 11.768ZM264.98 8.824C264.98 3.832 261.492 0.599998 256.404 0.599998H238.804V23H244.564V17.016H253.844L257.46 23H264.244L260.116 16.344C263.124 15.16 264.98 12.472 264.98 8.824ZM244.564 5.432H254.804C256.532 5.432 259.22 5.432 259.22 8.824C259.22 12.184 256.532 12.184 254.804 12.184H244.564V5.432ZM198.168 46.824C198.168 41.832 194.68 38.6 189.592 38.6H171.992V61H177.752V55.016H187.032L190.648 61H197.432L193.304 54.344C196.312 53.16 198.168 50.472 198.168 46.824ZM177.752 43.432H187.992C189.72 43.432 192.408 43.432 192.408 46.824C192.408 50.184 189.72 50.184 187.992 50.184H177.752V43.432ZM202.59 53.288C202.59 59.752 208.062 61.32 217.246 61.32C225.534 61.32 231.198 60.104 231.198 54.12C231.198 48.456 225.726 47.976 216.894 47.496C210.366 47.112 209.022 46.792 209.022 45.064C209.022 43.4 210.366 42.856 216.03 42.856C222.014 42.856 224.478 43.464 224.478 45.928H230.238C230.238 40.392 225.118 38.28 216.67 38.28C208.286 38.28 203.262 39.848 203.262 44.776C203.262 49.8 207.134 51.336 216.894 51.784C224.158 52.136 225.438 52.456 225.438 54.312C225.438 56.072 223.614 56.744 217.566 56.744C210.27 56.744 208.35 55.656 208.35 53.288H202.59ZM260.485 38.6V47.368H242.245V38.6H236.485V61H242.245V52.232H260.485V61H266.245V38.6H260.485ZM277.758 38.6H271.998V61H277.758V38.6ZM301.11 38.6H283.51V61H289.27V55.016H301.11C306.198 55.016 309.686 51.816 309.686 46.824C309.686 41.832 306.198 38.6 301.11 38.6ZM299.51 50.184H289.27V43.432H299.51C301.238 43.432 303.926 43.432 303.926 46.824C303.926 50.184 301.238 50.184 299.51 50.184Z" fill="#1A1363"/>
</svg>
