<svg width="23" height="17" viewBox="0 0 23 17" fill="none" xmlns="http://www.w3.org/2000/svg">
<g clip-path="url(#clip0_2_196)">
<path fill-rule="evenodd" clip-rule="evenodd" d="M14.1084 12.7739C14.1084 12.9041 14.0341 13.029 13.9018 13.1211C13.7696 13.2132 13.5902 13.265 13.4032 13.265H2.11999C1.93296 13.265 1.75359 13.2132 1.62134 13.1211C1.48909 13.029 1.41479 12.9041 1.41479 12.7739V3.93358C1.41479 3.80333 1.48909 3.67841 1.62134 3.5863C1.75359 3.4942 1.93296 3.44246 2.11999 3.44246H13.4032C13.5902 3.44246 13.7696 3.4942 13.9018 3.5863C14.0341 3.67841 14.1084 3.80333 14.1084 3.93358V5.89809C14.1084 6.02834 14.1827 6.15326 14.3149 6.24537C14.4472 6.33747 14.6265 6.38921 14.8136 6.38921C15.0006 6.38921 15.18 6.33747 15.3122 6.24537C15.4445 6.15326 15.5188 6.02834 15.5188 5.89809V3.93358C15.5188 3.54282 15.2959 3.16806 14.8991 2.89175C14.5024 2.61544 13.9643 2.46021 13.4032 2.46021H2.11999C1.5589 2.46021 1.02079 2.61544 0.624039 2.89175C0.227287 3.16806 0.00439453 3.54282 0.00439453 3.93358L0.00439453 12.7739C0.00439453 13.1646 0.227287 13.5394 0.624039 13.8157C1.02079 14.092 1.5589 14.2472 2.11999 14.2472H13.4032C13.9643 14.2472 14.5024 14.092 14.8991 13.8157C15.2959 13.5394 15.5188 13.1646 15.5188 12.7739V10.8093C15.5188 10.6791 15.4445 10.5542 15.3122 10.4621C15.18 10.37 15.0006 10.3182 14.8136 10.3182C14.6265 10.3182 14.4472 10.37 14.3149 10.4621C14.1827 10.5542 14.1084 10.6791 14.1084 10.8093V12.7739Z" fill="white"/>
<path fill-rule="evenodd" clip-rule="evenodd" d="M22.3649 8.70126C22.4305 8.65564 22.4826 8.60144 22.5182 8.54177C22.5537 8.48211 22.572 8.41814 22.572 8.35354C22.572 8.28894 22.5537 8.22498 22.5182 8.16531C22.4826 8.10564 22.4305 8.05145 22.3649 8.00582L18.1337 5.05907C18.0012 4.96685 17.8217 4.91504 17.6344 4.91504C17.4471 4.91504 17.2675 4.96685 17.1351 5.05907C17.0027 5.15129 16.9283 5.27637 16.9283 5.40679C16.9283 5.5372 17.0027 5.66228 17.1351 5.7545L20.1632 7.86242H7.7616C7.57457 7.86242 7.3952 7.91416 7.26294 8.00626C7.13069 8.09837 7.0564 8.22329 7.0564 8.35354C7.0564 8.4838 7.13069 8.60872 7.26294 8.70082C7.3952 8.79293 7.57457 8.84467 7.7616 8.84467H20.1632L17.1351 10.9526C17.0027 11.0448 16.9283 11.1699 16.9283 11.3003C16.9283 11.4307 17.0027 11.5558 17.1351 11.648C17.2675 11.7402 17.4471 11.792 17.6344 11.792C17.8217 11.792 18.0012 11.7402 18.1337 11.648L22.3649 8.70126Z" fill="white"/>
</g>
<defs>
<clipPath id="clip0_2_196">
<rect width="22.5664" height="15.716" fill="white" transform="translate(0.00439453 0.495605)"/>
</clipPath>
</defs>
</svg>
