<svg width="72" height="72" viewBox="0 0 72 72" fill="none" xmlns="http://www.w3.org/2000/svg">
<path d="M57.1419 65.7213H15.7195V59.8038H57.1419V65.7213ZM48.2657 53.8863H24.5957L31.0458 30.2164H24.5957V24.2989H32.6435L32.8506 23.5296C30.8096 22.6425 29.1812 21.0141 28.2942 18.9731C26.3118 14.4758 28.3533 9.23885 32.8506 7.28608C37.3479 5.30372 42.5849 7.34525 44.5377 11.8425C45.009 12.9087 45.265 14.0574 45.291 15.2228C45.3169 16.3882 45.1123 17.5472 44.6889 18.6333C44.2655 19.7193 43.6316 20.711 42.8237 21.5512C42.0158 22.3915 41.0498 23.0639 39.9812 23.5296L40.1883 24.2989H48.2657V30.2164H41.8156L48.2657 53.8863Z" fill="#1A1363"/>
</svg>
