<svg width="36" height="37" viewBox="0 0 36 37" fill="none" xmlns="http://www.w3.org/2000/svg">
<path d="M28.56 33.3114H7.91852V30.3664H28.56V33.3114ZM25.6112 15.6411C23.5176 15.6411 21.5714 16.7749 20.5246 18.5861H19.7136V11.2235H24.1368V8.27843H19.7136V3.86084H16.7649V8.27843H12.3417V11.2235H16.7649V18.5861H15.9539C14.3321 15.7736 10.7199 14.8017 7.91852 16.4362C6.56044 17.2121 5.56532 18.4935 5.15085 20.0003C4.73639 21.507 4.93633 23.1164 5.70694 24.4763C6.79798 26.3022 8.75892 27.4213 10.8673 27.4213H25.6112C27.1753 27.4213 28.6754 26.8007 29.7814 25.6961C30.8874 24.5915 31.5088 23.0934 31.5088 21.5312C31.5088 19.969 30.8874 18.4709 29.7814 17.3663C28.6754 16.2616 27.1753 15.6411 25.6112 15.6411Z" fill="white"/>
</svg>
