<svg width="37" height="36" viewBox="0 0 37 36" fill="none" xmlns="http://www.w3.org/2000/svg">
<path d="M28.7348 32.4262H8.09192V29.4811H28.7348V32.4262ZM19.8879 2.97559C18.0447 2.97559 16.3196 3.88855 15.3022 5.41999L11.0409 11.8108L13.9899 14.7558L17.0273 12.7385C17.6761 12.282 18.6198 12.4587 19.0769 13.136C19.1064 13.1802 19.1506 13.2244 19.1506 13.2833C19.593 14.1521 19.4308 15.1976 18.7377 15.8897L11.6602 22.9578C10.8492 23.7824 10.8492 25.1077 11.6749 25.9176C12.0583 26.3005 12.5891 26.5361 13.1347 26.5361H25.7858V8.8657C25.7858 7.30355 25.1644 5.80537 24.0583 4.70076C22.9523 3.59615 21.4521 2.97559 19.8879 2.97559Z" fill="white"/>
</svg>
