<svg width="24" height="24" viewBox="0 0 24 24" fill="none" xmlns="http://www.w3.org/2000/svg">
<path d="M17.2986 15.5148C18.7251 13.5326 19.3639 11.0751 19.0875 8.63383C18.811 6.19257 17.6395 3.94764 15.8075 2.34816C13.9755 0.74868 11.6179 -0.0873826 9.20658 0.00723687C6.79522 0.101856 4.50785 1.12018 2.80211 2.85848C1.09637 4.59677 0.0980334 6.92685 0.00684488 9.38254C-0.0843436 11.8382 0.738336 14.2384 2.3103 16.1029C3.88225 17.9675 6.08756 19.1588 8.48502 19.4386C10.8825 19.7184 13.2953 19.066 15.2407 17.612H15.2392C15.2834 17.672 15.3306 17.729 15.3836 17.7846L21.0551 23.5602C21.3313 23.8416 21.706 23.9999 22.0968 24C22.4876 24.0001 22.8624 23.8422 23.1388 23.5609C23.4152 23.2796 23.5706 22.898 23.5707 22.5001C23.5709 22.1021 23.4158 21.7204 23.1395 21.4389L17.4681 15.6633C17.4154 15.609 17.3588 15.5589 17.2986 15.5133V15.5148ZM17.6787 9.74823C17.6787 10.8317 17.4691 11.9047 17.062 12.9057C16.6548 13.9067 16.058 14.8163 15.3056 15.5825C14.5533 16.3486 13.6601 16.9564 12.6771 17.371C11.6941 17.7857 10.6406 17.9991 9.57657 17.9991C8.51259 17.9991 7.45902 17.7857 6.47602 17.371C5.49302 16.9564 4.59985 16.3486 3.8475 15.5825C3.09515 14.8163 2.49835 13.9067 2.09118 12.9057C1.68401 11.9047 1.47444 10.8317 1.47444 9.74823C1.47444 7.55997 2.32805 5.46133 3.8475 3.91399C5.36694 2.36666 7.42775 1.49738 9.57657 1.49738C11.7254 1.49738 13.7862 2.36666 15.3056 3.91399C16.8251 5.46133 17.6787 7.55997 17.6787 9.74823Z" fill="white"/>
</svg>
