<svg width="18" height="16" viewBox="0 0 18 16" fill="none" xmlns="http://www.w3.org/2000/svg">
<path fill-rule="evenodd" clip-rule="evenodd" d="M-0.00356293 13.9554V6.54909H1.45354V13.9554C1.45354 14.1065 1.5303 14.2515 1.66693 14.3583C1.80356 14.4651 1.98887 14.5252 2.18209 14.5252H15.296C15.4893 14.5252 15.6746 14.4651 15.8112 14.3583C15.9478 14.2515 16.0246 14.1065 16.0246 13.9554V6.54909H17.4817V13.9554C17.4817 14.4087 17.2514 14.8435 16.8415 15.164C16.4316 15.4845 15.8757 15.6646 15.296 15.6646H2.18209C1.60242 15.6646 1.04649 15.4845 0.636601 15.164C0.226711 14.8435 -0.00356293 14.4087 -0.00356293 13.9554ZM16.0246 1.42162V5.40965L13.1104 3.13078V1.42162C13.1104 1.27052 13.1871 1.12561 13.3238 1.01877C13.4604 0.911922 13.6457 0.851898 13.8389 0.851898H15.296C15.4893 0.851898 15.6746 0.911922 15.8112 1.01877C15.9478 1.12561 16.0246 1.27052 16.0246 1.42162Z" fill="white"/>
</svg>
