<svg width="21" height="14" viewBox="0 0 21 14" fill="none" xmlns="http://www.w3.org/2000/svg">
<path fill-rule="evenodd" clip-rule="evenodd" d="M0.671505 12.2836C0.671505 12.6744 0.894398 13.0491 1.29115 13.3254C1.6879 13.6017 2.22601 13.757 2.7871 13.757H18.3015C18.8626 13.757 19.4007 13.6017 19.7974 13.3254C20.1942 13.0491 20.4171 12.6744 20.4171 12.2836V6.39009C20.4171 6.25983 20.3428 6.13491 20.2105 6.04281C20.0783 5.9507 19.8989 5.89896 19.7119 5.89896C19.5249 5.89896 19.3455 5.9507 19.2132 6.04281C19.081 6.13491 19.0067 6.25983 19.0067 6.39009V12.2836C19.0067 12.4139 18.9324 12.5388 18.8001 12.6309C18.6679 12.723 18.4885 12.7747 18.3015 12.7747H2.7871C2.60007 12.7747 2.4207 12.723 2.28845 12.6309C2.1562 12.5388 2.0819 12.4139 2.0819 12.2836V1.47883C2.0819 1.34857 2.1562 1.22365 2.28845 1.13155C2.4207 1.03944 2.60007 0.9877 2.7871 0.9877H11.9547C12.1417 0.9877 12.3211 0.935956 12.4533 0.843852C12.5856 0.751748 12.6599 0.626828 12.6599 0.496573C12.6599 0.366319 12.5856 0.241399 12.4533 0.149295C12.3211 0.0571909 12.1417 0.00544739 11.9547 0.00544739H2.7871C2.22601 0.00544739 1.6879 0.160678 1.29115 0.43699C0.894398 0.713302 0.671505 1.08806 0.671505 1.47883V12.2836Z" fill="white"/>
</svg>
