<svg width="23" height="17" viewBox="0 0 23 17" fill="none" xmlns="http://www.w3.org/2000/svg">
<path d="M3.63501 0.445557C2.91036 0.445557 2.21539 0.682098 1.70298 1.10315C1.19058 1.52419 0.90271 2.09525 0.90271 2.6907L0.90271 13.9164C0.90271 14.5119 1.19058 15.083 1.70298 15.504C2.21539 15.925 2.91036 16.1616 3.63501 16.1616H20.0288C20.7535 16.1616 21.4484 15.925 21.9608 15.504C22.4733 15.083 22.7611 14.5119 22.7611 13.9164V2.6907C22.7611 2.09525 22.4733 1.52419 21.9608 1.10315C21.4484 0.682098 20.7535 0.445557 20.0288 0.445557H3.63501ZM20.0288 1.56813C20.3911 1.56813 20.7386 1.6864 20.9948 1.89692C21.251 2.10745 21.395 2.39298 21.395 2.6907V4.93585H2.26886V2.6907C2.26886 2.39298 2.41279 2.10745 2.669 1.89692C2.9252 1.6864 3.27269 1.56813 3.63501 1.56813H20.0288ZM2.26886 13.9164V6.05843H7.73346V15.039H3.63501C3.27269 15.039 2.9252 14.9207 2.669 14.7102C2.41279 14.4997 2.26886 14.2142 2.26886 13.9164ZM9.09961 15.039V6.05843H21.395V13.9164C21.395 14.2142 21.251 14.4997 20.9948 14.7102C20.7386 14.9207 20.3911 15.039 20.0288 15.039H9.09961Z" fill="#1A1363"/>
</svg>
