<svg width="23" height="17" viewBox="0 0 23 17" fill="none" xmlns="http://www.w3.org/2000/svg">
<path fill-rule="evenodd" clip-rule="evenodd" d="M2.99644 14.9554V7.54909H4.45354V14.9554C4.45354 15.1065 4.5303 15.2515 4.66693 15.3583C4.80356 15.4651 4.98887 15.5252 5.18209 15.5252H18.296C18.4893 15.5252 18.6746 15.4651 18.8112 15.3583C18.9478 15.2515 19.0246 15.1065 19.0246 14.9554V7.54909H20.4817V14.9554C20.4817 15.4087 20.2514 15.8435 19.8415 16.164C19.4316 16.4845 18.8757 16.6646 18.296 16.6646H5.18209C4.60242 16.6646 4.04649 16.4845 3.6366 16.164C3.22671 15.8435 2.99644 15.4087 2.99644 14.9554ZM19.0246 2.42162V6.40965L16.1104 4.13078V2.42162C16.1104 2.27052 16.1871 2.12561 16.3238 2.01877C16.4604 1.91192 16.6457 1.8519 16.8389 1.8519H18.296C18.4893 1.8519 18.6746 1.91192 18.8112 2.01877C18.9478 2.12561 19.0246 2.27052 19.0246 2.42162Z" fill="white"/>
<path fill-rule="evenodd" clip-rule="evenodd" d="M10.7088 1.2821C10.9821 1.06849 11.3526 0.948486 11.739 0.948486C12.1254 0.948486 12.4959 1.06849 12.7692 1.2821L22.4546 8.85481C22.5914 8.96179 22.6682 9.10688 22.6682 9.25817C22.6682 9.40946 22.5914 9.55456 22.4546 9.66153C22.3178 9.76851 22.1322 9.82861 21.9388 9.82861C21.7453 9.82861 21.5597 9.76851 21.4229 9.66153L11.739 2.08768L2.0551 9.66153C1.9183 9.76851 1.73276 9.82861 1.53929 9.82861C1.34582 9.82861 1.16027 9.76851 1.02347 9.66153C0.886669 9.55456 0.809814 9.40946 0.809814 9.25817C0.809814 9.10688 0.886669 8.96179 1.02347 8.85481L10.7088 1.2821Z" fill="white"/>
</svg>
