<svg width="59" height="41" viewBox="0 0 59 41" fill="none" xmlns="http://www.w3.org/2000/svg">
<g clip-path="url(#clip0_2_127)">
<path d="M40.4687 15.9611C40.4687 17.954 39.332 19.8652 37.3086 21.2744C35.2851 22.6836 32.5408 23.4753 29.6792 23.4753C26.8176 23.4753 24.0733 22.6836 22.0498 21.2744C20.0264 19.8652 18.8897 17.954 18.8897 15.9611C18.8897 13.9682 20.0264 12.0569 22.0498 10.6477C24.0733 9.23851 26.8176 8.44684 29.6792 8.44684C32.5408 8.44684 35.2851 9.23851 37.3086 10.6477C39.332 12.0569 40.4687 13.9682 40.4687 15.9611Z" fill="#FFFBD8"/>
<path fill-rule="evenodd" clip-rule="evenodd" d="M0.907078 20.9706C0.907078 15.6562 3.93842 10.5594 9.33424 6.8016C14.7301 3.04375 22.0484 0.932617 29.6792 0.932617C37.31 0.932617 44.6283 3.04375 50.0242 6.8016C55.42 10.5594 58.4513 15.6562 58.4513 20.9706C58.4513 26.285 55.42 31.3817 50.0242 35.1395C44.6283 38.8974 37.31 41.0085 29.6792 41.0085C22.0484 41.0085 14.7301 38.8974 9.33424 35.1395C3.93842 31.3817 0.907078 26.285 0.907078 20.9706ZM29.6792 3.43736C24.9382 3.43754 20.2936 4.37003 16.28 6.12752C12.2665 7.88501 9.04701 10.3961 6.99225 13.3717C4.9375 16.3472 4.13095 19.6664 4.66543 22.9472C5.19992 26.228 7.05371 29.3369 10.0135 31.9163C12.567 29.0509 18.1883 25.98 29.6792 25.98C41.1701 25.98 46.7878 29.0484 49.3449 31.9163C52.3047 29.3369 54.1585 26.228 54.693 22.9472C55.2275 19.6664 54.4209 16.3472 52.3661 13.3717C50.3114 10.3961 47.0919 7.88501 43.0784 6.12752C39.0648 4.37003 34.4202 3.43754 29.6792 3.43736Z" fill="#FFFBD8"/>
</g>
<defs>
<clipPath id="clip0_2_127">
<rect width="57.5442" height="40.0759" fill="white" transform="translate(0.907078 0.932617)"/>
</clipPath>
</defs>
</svg>
