<svg width="23" height="16" viewBox="0 0 23 16" fill="none" xmlns="http://www.w3.org/2000/svg">
<g clip-path="url(#clip0_2_139)">
<path d="M22.1251 1.92876C22.2569 2.02082 22.3309 2.14551 22.3309 2.2755C22.3309 2.40548 22.2569 2.53017 22.1251 2.62223L20.6541 3.6477L17.8333 1.6832L19.3043 0.657726C19.4366 0.565654 19.6159 0.513931 19.8029 0.513931C19.9899 0.513931 20.1692 0.565654 20.3015 0.657726L22.1251 1.92778V1.92876ZM19.6569 4.34117L16.8361 2.37667L7.22707 9.06973C7.14944 9.12378 7.091 9.18971 7.05641 9.26226L5.92104 11.6334C5.90045 11.6766 5.89752 11.723 5.91259 11.7673C5.92766 11.8116 5.96014 11.8522 6.00638 11.8844C6.05262 11.9166 6.11081 11.9392 6.17445 11.9497C6.23808 11.9602 6.30465 11.9581 6.36672 11.9438L9.77142 11.1531C9.87546 11.1293 9.97011 11.0889 10.0479 11.0352L19.6569 4.34215V4.34117Z" fill="white"/>
<path fill-rule="evenodd" clip-rule="evenodd" d="M1.6715 13.2836C1.6715 13.6744 1.8944 14.0491 2.29115 14.3254C2.6879 14.6017 3.22601 14.757 3.7871 14.757H19.3015C19.8626 14.757 20.4007 14.6017 20.7974 14.3254C21.1942 14.0491 21.4171 13.6744 21.4171 13.2836V7.39009C21.4171 7.25983 21.3428 7.13491 21.2105 7.04281C21.0783 6.9507 20.8989 6.89896 20.7119 6.89896C20.5249 6.89896 20.3455 6.9507 20.2132 7.04281C20.081 7.13491 20.0067 7.25983 20.0067 7.39009V13.2836C20.0067 13.4139 19.9324 13.5388 19.8001 13.6309C19.6679 13.723 19.4885 13.7747 19.3015 13.7747H3.7871C3.60007 13.7747 3.4207 13.723 3.28845 13.6309C3.1562 13.5388 3.0819 13.4139 3.0819 13.2836V2.47883C3.0819 2.34857 3.1562 2.22365 3.28845 2.13155C3.4207 2.03944 3.60007 1.9877 3.7871 1.9877H12.9547C13.1417 1.9877 13.3211 1.93596 13.4533 1.84385C13.5856 1.75175 13.6599 1.62683 13.6599 1.49657C13.6599 1.36632 13.5856 1.2414 13.4533 1.14929C13.3211 1.05719 13.1417 1.00545 12.9547 1.00545H3.7871C3.22601 1.00545 2.6879 1.16068 2.29115 1.43699C1.8944 1.7133 1.6715 2.08806 1.6715 2.47883V13.2836Z" fill="white"/>
</g>
<defs>
<clipPath id="clip0_2_139">
<rect width="22.5664" height="15.716" fill="white" transform="translate(0.261108 0.0231934)"/>
</clipPath>
</defs>
</svg>
