<svg width="23" height="17" viewBox="0 0 23 17" fill="none" xmlns="http://www.w3.org/2000/svg">
<g clip-path="url(#clip0_2_152)">
<path fill-rule="evenodd" clip-rule="evenodd" d="M15.5696 6.70636C15.6352 6.75198 15.6873 6.80618 15.7229 6.86584C15.7584 6.92551 15.7767 6.98948 15.7767 7.05408C15.7767 7.11868 15.7584 7.18264 15.7229 7.24231C15.6873 7.30198 15.6352 7.35617 15.5696 7.40179L11.3384 10.3486C11.2729 10.3943 11.195 10.4306 11.1094 10.4553C11.0237 10.4801 10.9319 10.4928 10.8391 10.4928C10.7463 10.4928 10.6545 10.4801 10.5688 10.4553C10.4831 10.4306 10.4053 10.3943 10.3398 10.3486L8.22422 8.87517C8.15865 8.82951 8.10664 8.7753 8.07115 8.71564C8.03567 8.65598 8.01741 8.59203 8.01741 8.52745C8.01741 8.46288 8.03567 8.39893 8.07115 8.33927C8.10664 8.27961 8.15865 8.2254 8.22422 8.17974C8.28978 8.13407 8.36762 8.09785 8.45329 8.07314C8.53895 8.04843 8.63077 8.03571 8.7235 8.03571C8.81622 8.03571 8.90804 8.04843 8.99371 8.07314C9.07937 8.09785 9.15721 8.13407 9.22278 8.17974L10.8391 9.30638L14.571 6.70636C14.6365 6.66062 14.7143 6.62434 14.8 6.59958C14.8857 6.57482 14.9775 6.56207 15.0703 6.56207C15.163 6.56207 15.2549 6.57482 15.3406 6.59958C15.4262 6.62434 15.5041 6.66062 15.5696 6.70636Z" fill="white"/>
<path d="M4.4923 0.669434H18.5963C19.3444 0.669434 20.0619 0.876408 20.5909 1.24482C21.1199 1.61324 21.4171 2.11292 21.4171 2.63394V14.421C21.4171 14.942 21.1199 15.4417 20.5909 15.8101C20.0619 16.1785 19.3444 16.3855 18.5963 16.3855H4.4923C3.74418 16.3855 3.0267 16.1785 2.4977 15.8101C1.9687 15.4417 1.6715 14.942 1.6715 14.421V13.4387H3.0819V14.421C3.0819 14.6815 3.2305 14.9313 3.495 15.1155C3.7595 15.2997 4.11824 15.4032 4.4923 15.4032H18.5963C18.9703 15.4032 19.3291 15.2997 19.5936 15.1155C19.8581 14.9313 20.0067 14.6815 20.0067 14.421V2.63394C20.0067 2.37343 19.8581 2.12359 19.5936 1.93938C19.3291 1.75517 18.9703 1.65169 18.5963 1.65169H4.4923C4.11824 1.65169 3.7595 1.75517 3.495 1.93938C3.2305 2.12359 3.0819 2.37343 3.0819 2.63394V3.61619H1.6715V2.63394C1.6715 2.11292 1.9687 1.61324 2.4977 1.24482C3.0267 0.876408 3.74418 0.669434 4.4923 0.669434V0.669434Z" fill="white"/>
<path d="M1.67151 5.58069V5.08957C1.67151 4.95931 1.7458 4.83439 1.87805 4.74229C2.01031 4.65019 2.18968 4.59844 2.37671 4.59844C2.56374 4.59844 2.74311 4.65019 2.87536 4.74229C3.00761 4.83439 3.0819 4.95931 3.0819 5.08957V5.58069H3.7871C3.97413 5.58069 4.1535 5.63244 4.28575 5.72454C4.418 5.81665 4.4923 5.94157 4.4923 6.07182C4.4923 6.20208 4.418 6.32699 4.28575 6.4191C4.1535 6.5112 3.97413 6.56295 3.7871 6.56295H0.966307C0.779277 6.56295 0.599907 6.5112 0.467656 6.4191C0.335406 6.32699 0.261108 6.20208 0.261108 6.07182C0.261108 5.94157 0.335406 5.81665 0.467656 5.72454C0.599907 5.63244 0.779277 5.58069 0.966307 5.58069H1.67151ZM1.67151 8.52745V8.03632C1.67151 7.90607 1.7458 7.78115 1.87805 7.68905C2.01031 7.59694 2.18968 7.5452 2.37671 7.5452C2.56374 7.5452 2.74311 7.59694 2.87536 7.68905C3.00761 7.78115 3.0819 7.90607 3.0819 8.03632V8.52745H3.7871C3.97413 8.52745 4.1535 8.57919 4.28575 8.6713C4.418 8.7634 4.4923 8.88832 4.4923 9.01858C4.4923 9.14883 4.418 9.27375 4.28575 9.36586C4.1535 9.45796 3.97413 9.5097 3.7871 9.5097H0.966307C0.779277 9.5097 0.599907 9.45796 0.467656 9.36586C0.335406 9.27375 0.261108 9.14883 0.261108 9.01858C0.261108 8.88832 0.335406 8.7634 0.467656 8.6713C0.599907 8.57919 0.779277 8.52745 0.966307 8.52745H1.67151ZM1.67151 11.4742V10.9831C1.67151 10.8528 1.7458 10.7279 1.87805 10.6358C2.01031 10.5437 2.18968 10.492 2.37671 10.492C2.56374 10.492 2.74311 10.5437 2.87536 10.6358C3.00761 10.7279 3.0819 10.8528 3.0819 10.9831V11.4742H3.7871C3.97413 11.4742 4.1535 11.526 4.28575 11.6181C4.418 11.7102 4.4923 11.8351 4.4923 11.9653C4.4923 12.0956 4.418 12.2205 4.28575 12.3126C4.1535 12.4047 3.97413 12.4565 3.7871 12.4565H0.966307C0.779277 12.4565 0.599907 12.4047 0.467656 12.3126C0.335406 12.2205 0.261108 12.0956 0.261108 11.9653C0.261108 11.8351 0.335406 11.7102 0.467656 11.6181C0.599907 11.526 0.779277 11.4742 0.966307 11.4742H1.67151Z" fill="white"/>
</g>
<defs>
<clipPath id="clip0_2_152">
<rect width="22.5664" height="15.716" fill="white" transform="translate(0.261108 0.669434)"/>
</clipPath>
</defs>
</svg>
